<svg width="20" height="20" viewBox="0 0 20 20" fill="none" xmlns="http://www.w3.org/2000/svg">
<path d="M10 18.3333C14.6024 18.3333 18.3334 14.6023 18.3334 9.99996C18.3334 5.39759 14.6024 1.66663 10 1.66663C5.39765 1.66663 1.66669 5.39759 1.66669 9.99996C1.66669 14.6023 5.39765 18.3333 10 18.3333Z" stroke="white" stroke-width="1.2" stroke-linecap="round"/>
<path d="M5.83331 6.9828H9.58331M9.58331 6.9828H12.0833M9.58331 6.9828V5.83337M14.1666 6.9828H12.0833M12.0833 6.9828C11.6437 8.55471 10.7232 10.0406 9.67256 11.3465M9.67256 11.3465C8.80256 12.4279 7.84335 13.3857 6.99403 14.1667M9.67256 11.3465C9.1369 10.7185 8.3869 9.70221 8.1726 9.24246M9.67256 11.3465L11.2797 13.0173" stroke="white" stroke-width="1.2" stroke-linecap="round"/>
</svg>
