<svg width="19" height="19" viewBox="0 0 19 19" fill="none" xmlns="http://www.w3.org/2000/svg">
<path d="M2.375 6.729H11.875C14.1142 6.729 15.2337 6.729 15.9294 7.42463C16.625 8.12028 16.625 9.23985 16.625 11.479V12.2707C16.625 14.5098 16.625 15.6294 15.9294 16.325C15.2337 17.0207 14.1142 17.0207 11.875 17.0207H7.125C4.88583 17.0207 3.76624 17.0207 3.07062 16.325C2.375 15.6294 2.375 14.5098 2.375 12.2707V6.729Z" stroke="white" stroke-width="1.1875" stroke-linecap="round" stroke-linejoin="round"/>
<path d="M11.875 6.72768V3.25382C11.875 2.54976 11.3042 1.979 10.6002 1.979C10.3974 1.979 10.1976 2.02736 10.0173 2.12006L2.97849 5.73884C2.60794 5.92935 2.375 6.31103 2.375 6.72768" stroke="white" stroke-width="1.1875" stroke-linecap="round" stroke-linejoin="round"/>
<path d="M13.8542 12.2707C14.0728 12.2707 14.25 12.0934 14.25 11.8748C14.25 11.6563 14.0728 11.479 13.8542 11.479M13.8542 12.2707C13.6356 12.2707 13.4584 12.0934 13.4584 11.8748C13.4584 11.6563 13.6356 11.479 13.8542 11.479M13.8542 12.2707V11.479" stroke="white" stroke-width="1.1875" stroke-linecap="round" stroke-linejoin="round"/>
</svg>
